<svg id="svg" version="1.1" xmlns="http://www.w3.org/2000/svg" xmlns:xlink="http://www.w3.org/1999/xlink" width="400" height="100.88792896568275" viewBox="0, 0, 400,100.88792896568275"><g id="svgg"><path id="path0" d="M356.583 20.169 C 355.249 20.310,352.328 20.973,352.092 21.189 C 352.005 21.268,351.831 21.333,351.707 21.333 C 350.827 21.333,347.832 23.200,346.108 24.822 C 344.964 25.899,342.667 29.087,342.667 29.597 C 342.667 29.637,342.523 29.988,342.348 30.377 C 341.464 32.340,340.781 35.557,340.582 38.708 L 340.468 40.500 346.151 40.500 L 351.833 40.500 351.838 39.542 C 351.872 33.315,354.816 30.000,360.311 30.000 C 364.142 30.000,366.322 31.140,367.639 33.833 L 368.250 35.083 368.250 37.500 C 368.250 42.151,366.112 45.277,359.833 49.803 C 359.054 50.364,358.340 50.882,358.246 50.954 C 358.152 51.025,357.702 51.343,357.246 51.661 C 356.790 51.978,356.331 52.316,356.227 52.411 C 356.122 52.506,355.829 52.733,355.574 52.917 C 344.968 60.560,340.227 68.249,339.877 78.375 L 339.786 81.000 359.893 81.000 L 380.000 81.000 380.000 75.833 L 380.000 70.667 367.333 70.667 C 357.916 70.667,354.667 70.618,354.667 70.475 C 354.667 68.088,359.509 62.404,364.159 59.333 C 364.367 59.196,364.784 58.896,365.086 58.667 C 365.387 58.438,365.842 58.100,366.098 57.917 C 376.451 50.484,380.188 44.520,379.757 36.115 C 379.660 34.221,379.121 31.254,378.814 30.925 C 378.733 30.838,378.667 30.664,378.667 30.540 C 378.667 29.294,375.893 25.521,373.721 23.811 C 370.139 20.992,363.049 19.485,356.583 20.169 M312.137 23.875 C 311.535 24.906,310.593 26.500,310.044 27.417 C 308.306 30.319,307.880 31.037,306.730 33.000 C 306.112 34.054,305.468 35.118,305.299 35.364 C 305.131 35.610,304.410 36.810,303.697 38.031 C 302.984 39.251,302.194 40.587,301.942 41.000 C 301.180 42.245,299.366 45.295,298.126 47.417 C 297.483 48.517,296.699 49.829,296.385 50.333 C 295.661 51.492,293.889 54.456,292.727 56.449 L 291.833 57.982 291.833 62.991 L 291.833 68.000 303.248 68.000 L 314.663 68.000 314.706 74.458 L 314.750 80.917 320.583 80.917 L 326.417 80.917 326.460 74.458 L 326.504 68.000 329.752 68.000 L 333.000 68.000 333.000 63.500 L 333.000 59.000 329.750 59.000 L 326.500 59.000 326.500 40.500 L 326.500 22.000 319.865 22.000 L 313.231 22.000 312.137 23.875 M315.000 48.917 L 315.000 59.000 309.167 59.000 C 302.970 59.000,303.068 59.014,303.643 58.192 C 303.813 57.949,304.140 57.413,304.370 57.000 C 304.599 56.587,304.929 56.010,305.102 55.716 C 305.553 54.952,310.717 46.034,311.742 44.250 C 312.216 43.425,312.711 42.563,312.843 42.333 C 312.975 42.104,313.126 41.879,313.179 41.833 C 313.231 41.787,313.324 41.637,313.384 41.500 C 313.444 41.362,313.681 40.950,313.912 40.583 C 314.142 40.217,314.458 39.673,314.613 39.375 C 314.768 39.077,314.919 38.833,314.948 38.833 C 314.976 38.833,315.000 43.371,315.000 48.917 " stroke="none" fill="#7cfcd4" fill-rule="evenodd"></path><path id="path1" d="M45.000 29.240 C 42.113 29.697,38.504 31.051,37.667 31.992 C 37.621 32.043,37.321 32.282,37.000 32.523 C 35.811 33.415,34.225 35.182,33.356 36.583 L 32.840 37.417 32.837 33.875 L 32.833 30.333 26.417 30.333 L 20.000 30.333 20.000 55.667 L 20.000 81.000 26.743 81.000 L 33.486 81.000 33.549 64.875 C 33.620 46.766,33.544 47.879,34.889 45.199 C 36.569 41.851,39.019 40.587,43.833 40.586 C 48.357 40.584,50.061 41.361,51.321 44.000 C 52.214 45.873,52.224 46.068,52.286 64.208 L 52.344 81.000 59.093 81.000 L 65.843 81.000 65.794 61.542 L 65.746 42.083 65.364 40.750 C 64.085 36.284,61.786 33.191,58.199 31.110 C 57.622 30.774,57.097 30.500,57.033 30.499 C 56.969 30.498,56.700 30.385,56.435 30.247 C 54.454 29.213,48.485 28.688,45.000 29.240 M96.833 29.103 C 92.537 29.629,89.335 30.682,86.333 32.558 C 85.737 32.930,85.212 33.278,85.167 33.332 C 85.121 33.385,84.858 33.599,84.583 33.807 C 77.621 39.080,74.562 49.473,76.332 61.833 C 76.607 63.749,77.680 67.990,77.999 68.417 C 78.067 68.508,78.214 68.865,78.325 69.210 C 79.201 71.929,81.940 75.523,84.773 77.670 C 91.452 82.732,104.341 83.721,112.250 79.779 C 116.700 77.561,120.217 73.788,122.298 69.000 C 122.810 67.822,123.333 66.344,123.333 66.077 C 123.333 65.867,122.374 65.833,116.413 65.833 L 109.492 65.833 109.325 66.292 C 107.729 70.673,101.411 72.778,96.250 70.647 C 92.504 69.100,89.500 64.311,89.500 59.886 L 89.500 59.167 106.775 59.167 L 124.051 59.167 123.939 55.625 C 123.877 53.677,123.758 51.671,123.673 51.167 C 123.588 50.663,123.399 49.538,123.252 48.667 C 122.763 45.768,122.024 43.498,120.537 40.333 C 117.868 34.652,112.933 30.888,106.333 29.498 C 104.629 29.139,98.587 28.888,96.833 29.103 M217.200 29.185 C 216.530 29.262,215.646 29.440,215.235 29.580 C 214.824 29.719,214.403 29.833,214.299 29.833 C 212.855 29.833,208.458 33.204,207.019 35.415 L 206.583 36.083 206.538 33.208 L 206.492 30.333 200.163 30.333 L 193.833 30.333 193.833 55.667 L 193.833 81.000 200.583 81.000 L 207.333 81.000 207.333 67.363 C 207.333 51.239,207.415 50.246,208.971 47.500 C 210.991 43.933,213.988 42.582,219.875 42.585 L 223.333 42.587 223.333 35.794 L 223.333 29.000 220.875 29.022 C 219.523 29.034,217.869 29.107,217.200 29.185 M253.000 29.164 C 246.145 29.929,240.111 33.279,236.036 38.583 C 234.268 40.886,232.366 45.382,231.737 48.750 C 229.032 63.223,234.796 75.929,246.019 80.234 C 246.696 80.494,247.400 80.771,247.583 80.849 C 249.022 81.462,252.389 81.987,255.667 82.109 C 267.468 82.549,276.096 77.682,280.384 68.167 C 284.256 59.574,283.243 45.450,278.299 39.083 C 276.931 37.322,276.388 36.700,275.204 35.542 C 274.431 34.785,273.737 34.167,273.662 34.167 C 273.586 34.167,273.425 34.073,273.304 33.958 C 269.592 30.448,260.575 28.318,253.000 29.164 M134.000 47.554 C 134.000 66.814,134.013 67.085,135.079 70.417 C 135.541 71.862,136.663 74.333,136.857 74.333 C 136.935 74.333,137.000 74.412,137.000 74.507 C 137.000 75.663,141.183 79.476,143.750 80.659 C 148.874 83.021,157.021 82.518,161.476 79.563 C 161.810 79.342,162.229 79.068,162.407 78.955 C 163.136 78.494,165.549 76.045,166.129 75.179 L 166.750 74.250 166.795 77.625 L 166.840 81.000 173.253 81.000 L 179.667 81.000 179.667 55.667 L 179.667 30.333 172.921 30.333 L 166.176 30.333 166.125 46.458 L 166.073 62.583 165.687 63.737 C 165.325 64.817,164.278 66.977,164.025 67.166 C 163.962 67.212,163.701 67.506,163.444 67.818 C 159.872 72.162,151.223 71.808,148.860 67.221 C 147.622 64.818,147.667 65.574,147.667 46.886 L 147.667 30.333 140.833 30.333 L 134.000 30.333 134.000 47.554 M102.500 40.026 C 103.004 40.123,103.492 40.260,103.583 40.331 C 103.675 40.402,103.938 40.515,104.167 40.583 C 107.177 41.476,110.152 46.291,110.165 50.292 L 110.167 50.667 100.000 50.667 L 89.833 50.667 89.833 50.173 C 89.833 49.438,90.463 46.852,90.838 46.043 C 91.019 45.655,91.167 45.261,91.167 45.168 C 91.167 45.076,91.242 45.000,91.333 45.000 C 91.425 45.000,91.500 44.912,91.500 44.805 C 91.500 44.364,93.162 42.470,94.256 41.663 C 96.729 39.840,99.102 39.368,102.500 40.026 M261.000 40.896 C 267.804 43.060,270.797 51.210,268.599 61.583 C 268.443 62.317,268.216 63.142,268.093 63.417 C 267.971 63.692,267.816 64.097,267.749 64.318 C 267.324 65.723,264.467 69.167,263.726 69.167 C 263.602 69.167,263.500 69.242,263.500 69.333 C 263.500 69.425,263.421 69.500,263.325 69.500 C 263.229 69.500,262.835 69.655,262.450 69.845 C 258.479 71.802,251.972 70.877,248.934 67.923 C 243.202 62.349,243.871 45.755,249.963 42.435 C 250.121 42.349,250.287 42.223,250.333 42.156 C 250.564 41.817,252.670 41.046,254.583 40.600 C 255.450 40.397,260.109 40.613,261.000 40.896 " stroke="none" fill="#848484" fill-rule="evenodd"></path><path id="path2" d="" stroke="none" fill="#80e0d8" fill-rule="evenodd"></path><path id="path3" d="" stroke="none" fill="#80a0b0" fill-rule="evenodd"></path><path id="path4" d="" stroke="none" fill="#80a484" fill-rule="evenodd"></path></g></svg>